<svg width="47" height="61" viewBox="0 0 47 61" fill="none" xmlns="http://www.w3.org/2000/svg">
<path fill-rule="evenodd" clip-rule="evenodd" d="M44.4127 21C45.2893 21 46 21.7221 46 22.6129V40.9211C46 43.9013 43.3743 46.1731 40.4789 45.698L33.2222 44.5072V61H13.5397V44.5129L6.53511 45.6842C3.6355 46.169 1 43.8957 1 40.9097V23.4194C1 22.5286 1.71066 21.8065 2.5873 21.8065C3.46394 21.8065 4.1746 22.5286 4.1746 23.4194V40.9097C4.1746 41.905 5.0531 42.6628 6.01964 42.5012L16.7143 40.7129V57.7742H30.0476V40.7186L40.985 42.5134C41.9502 42.6718 42.8254 41.9145 42.8254 40.9211V22.6129C42.8254 21.7221 43.5361 21 44.4127 21Z" fill="#3E87F6"/>
<path fill-rule="evenodd" clip-rule="evenodd" d="M4.42969 4C5.01218 4 5.48438 4.40386 5.48438 4.90205V15.5334L7.19954 14.0665C7.61142 13.7142 8.27921 13.7142 8.69109 14.0665C9.10297 14.4188 9.10297 14.9899 8.69109 15.3422L4.41431 19L0.293851 15.329C-0.109541 14.9696 -0.0959151 14.3986 0.324284 14.0536C0.744483 13.7086 1.41214 13.7202 1.81553 14.0796L3.375 15.469V4.90205C3.375 4.40386 3.8472 4 4.42969 4Z" fill="#3E87F6"/>
<path fill-rule="evenodd" clip-rule="evenodd" d="M42.4297 4C43.0122 4 43.4844 4.40386 43.4844 4.90205V15.5334L45.1995 14.0665C45.6114 13.7142 46.2792 13.7142 46.6911 14.0665C47.103 14.4188 47.103 14.9899 46.6911 15.3422L42.4143 19L38.2939 15.329C37.8905 14.9696 37.9041 14.3986 38.3243 14.0536C38.7445 13.7086 39.4121 13.7202 39.8155 14.0796L41.375 15.469V4.90205C41.375 4.40386 41.8472 4 42.4297 4Z" fill="#3E87F6"/>
<path fill-rule="evenodd" clip-rule="evenodd" d="M23.4453 0C23.8984 0 24.2656 0.430786 24.2656 0.962187V12.3023L25.5996 10.7376C25.92 10.3618 26.4394 10.3618 26.7597 10.7376C27.0801 11.1133 27.0801 11.7226 26.7597 12.0983L23.4334 16L20.2286 12.0843C19.9148 11.7009 19.9254 11.0918 20.2522 10.7238C20.579 10.3558 21.0983 10.3683 21.4121 10.7516L22.625 12.2336V0.962187C22.625 0.430786 22.9923 0 23.4453 0Z" fill="#3E87F6"/>
<path fill-rule="evenodd" clip-rule="evenodd" d="M33.4297 2C34.0122 2 34.4844 2.43079 34.4844 2.96219V14.3023L36.1995 12.7376C36.6114 12.3618 37.2792 12.3618 37.6911 12.7376C38.103 13.1133 38.103 13.7226 37.6911 14.0983L33.4143 18L29.2939 14.0843C28.8905 13.7009 28.9041 13.0918 29.3243 12.7238C29.7445 12.3558 30.4121 12.3683 30.8155 12.7516L32.375 14.2336V2.96219C32.375 2.43079 32.8472 2 33.4297 2Z" fill="#3E87F6"/>
<path fill-rule="evenodd" clip-rule="evenodd" d="M13.9375 2C14.4553 2 14.875 2.43079 14.875 2.96219V14.3023L16.3996 12.7376C16.7657 12.3618 17.3593 12.3618 17.7254 12.7376C18.0915 13.1133 18.0915 13.7226 17.7254 14.0983L13.9238 18L10.2612 14.0843C9.90263 13.7009 9.91474 13.0918 10.2883 12.7238C10.6618 12.3558 11.2552 12.3683 11.6138 12.7516L13 14.2336V2.96219C13 2.43079 13.4197 2 13.9375 2Z" fill="#3E87F6"/>
<path d="M21 40H25L22.95 42.6122L25 53.2245L22.95 56L21 53.2245L22.95 42.6122L21 40Z" fill="#3E87F6"/>
</svg>
