<?xml version="1.0" standalone="no"?>
<!DOCTYPE svg PUBLIC "-//W3C//DTD SVG 20010904//EN"
 "http://www.w3.org/TR/2001/REC-SVG-20010904/DTD/svg10.dtd">
<svg version="1.0" xmlns="http://www.w3.org/2000/svg"
 width="560.000000pt" height="560.000000pt" viewBox="0 0 560.000000 560.000000"
 preserveAspectRatio="xMidYMid meet">
<metadata>
Created by potrace 1.14, written by Peter Selinger 2001-2017
</metadata>
<g transform="translate(0.000000,560.000000) scale(0.100000,-0.100000)"
fill="#000000" stroke="none">
<path d="M2508 5194 c-150 -90 -277 -165 -282 -167 -5 -2 -10 -142 -10 -322
l-1 -319 -90 -54 c-49 -29 -108 -64 -130 -77 -22 -12 -101 -59 -175 -103
l-135 -81 -1 -308 c-1 -169 -2 -314 -3 -321 -1 -7 -11 -17 -23 -22 -13 -5
-131 -74 -263 -153 l-240 -143 -3 -320 -2 -319 -43 -24 c-114 -65 -483 -285
-487 -292 -3 -4 -5 -147 -4 -319 l1 -311 -86 -51 c-47 -28 -102 -60 -121 -71
-123 -69 -298 -173 -311 -184 -14 -12 -16 -52 -15 -345 l1 -332 110 -66 c273
-163 448 -263 459 -263 6 0 53 25 104 56 51 32 94 57 96 57 1 0 74 43 162 96
138 83 162 95 184 87 14 -5 136 -76 272 -156 l246 -147 214 126 c117 70 237
141 267 159 l54 32 266 -158 266 -158 45 26 c25 14 142 84 261 154 119 71 222
129 229 129 6 0 128 -70 271 -155 l260 -154 32 18 c18 10 133 78 256 151 124
73 232 135 241 137 9 2 63 -24 120 -58 58 -34 176 -104 262 -155 l158 -94 97
58 c54 31 181 106 283 167 l185 111 3 335 2 335 -152 88 c-84 49 -173 100
-198 114 -25 14 -76 44 -115 67 l-70 41 -5 319 -5 319 -100 59 c-55 33 -172
102 -260 154 -88 52 -162 97 -164 99 -3 3 -5 147 -5 320 l-1 316 -265 157
-265 157 -1 317 c-1 175 -3 319 -5 321 -7 5 -253 150 -290 171 -20 11 -82 47
-137 80 l-101 60 -3 319 -3 319 -282 167 -282 168 -273 -164z m527 -69 l245
-146 0 -297 0 -297 -171 -100 c-93 -55 -182 -107 -197 -116 -15 -9 -50 -30
-79 -47 l-51 -31 -149 88 c-81 48 -193 115 -248 147 l-100 60 -2 296 -1 297
241 144 c133 80 248 146 255 146 7 1 123 -64 257 -144z m-639 -888 c76 -45
187 -111 245 -145 l105 -62 0 -297 -1 -297 -249 -147 c-137 -82 -252 -147
-255 -145 -3 2 -60 36 -126 76 -66 40 -141 85 -166 99 -25 14 -80 46 -122 71
l-77 45 0 297 c0 273 1 299 18 308 191 117 470 279 478 280 6 0 73 -37 150
-83z m1173 -63 l246 -145 -2 -282 c-1 -155 -2 -289 -2 -298 -1 -8 -35 -35 -78
-60 -42 -24 -88 -51 -102 -59 -14 -8 -89 -53 -165 -99 -77 -47 -144 -84 -150
-84 -10 0 -482 276 -496 290 -10 9 -5 587 5 596 19 16 480 287 489 287 6 0
120 -66 255 -146z m-1607 -941 l248 -146 1 -194 c0 -106 0 -213 0 -238 0 -25
0 -72 0 -104 l-1 -59 -246 -147 -247 -147 -41 23 c-22 12 -117 68 -211 124
-93 56 -188 111 -210 124 l-40 22 0 294 c0 161 4 297 8 302 8 8 478 290 486
292 3 1 116 -65 253 -146z m878 110 c8 -4 54 -31 102 -60 48 -29 102 -61 120
-72 96 -54 214 -125 218 -132 4 -6 5 -570 1 -590 0 -3 -22 -18 -48 -33 -27
-14 -57 -32 -68 -39 -120 -75 -371 -220 -380 -220 -5 0 -120 66 -254 146
l-245 146 1 291 c1 189 5 296 11 302 6 6 118 75 249 153 217 130 240 141 258
128 11 -7 27 -16 35 -20z m1263 -118 l245 -146 0 -294 -1 -295 -23 -15 c-12
-8 -38 -23 -56 -34 -18 -10 -96 -57 -173 -103 -77 -46 -165 -98 -195 -115
l-55 -31 -190 114 c-104 63 -216 129 -247 147 l-58 32 0 296 0 296 38 25 c20
13 44 27 52 31 8 4 101 59 205 122 105 62 195 114 202 114 6 1 122 -64 256
-144z m-2672 -942 l249 -148 0 -295 0 -296 -202 -121 c-112 -66 -226 -133
-254 -149 l-50 -28 -48 32 c-26 18 -48 32 -50 32 -6 0 -319 187 -358 213 l-36
26 -1 293 0 293 247 147 c136 81 249 147 250 148 2 0 116 -66 253 -147z m2142
-5 c130 -77 237 -144 238 -147 1 -8 1 -540 0 -568 -1 -17 -50 -51 -242 -167
-132 -81 -244 -147 -249 -149 -5 -1 -121 65 -257 147 l-248 149 0 293 c0 161
4 296 8 300 26 26 485 291 497 287 8 -2 122 -68 253 -145z m1067 0 l240 -143
-2 -299 -3 -300 -235 -138 c-129 -77 -241 -142 -247 -145 -7 -3 -125 61 -261
142 l-249 148 0 296 0 297 161 94 c89 52 199 118 246 147 47 29 90 51 97 48 7
-2 121 -68 253 -147z m-2138 -3 l244 -145 -1 -297 0 -296 -249 -148 -250 -148
-40 25 c-23 13 -134 79 -248 147 l-207 122 -1 297 0 297 58 35 c167 103 428
255 438 256 7 0 122 -65 256 -145z m-1807 -822 c26 -16 61 -36 78 -47 284
-168 366 -219 369 -229 10 -28 3 -576 -8 -587 -27 -27 -479 -290 -491 -286 -8
3 -64 36 -126 72 -61 37 -128 76 -147 87 -19 11 -77 44 -127 74 l-93 54 0 55
c-1 30 -1 137 -1 239 0 322 -1 305 19 312 9 4 28 14 42 24 24 16 432 259 436
259 1 0 23 -12 49 -27z m1165 -59 c80 -47 191 -113 248 -147 l102 -60 1 -204
c0 -112 0 -241 0 -288 0 -47 0 -89 0 -94 -1 -7 -65 -50 -106 -71 -5 -3 -95
-56 -198 -118 -104 -62 -195 -111 -203 -108 -8 3 -39 21 -69 41 -31 19 -57 35
-59 35 -3 0 -85 48 -183 107 l-178 108 0 292 c0 160 4 295 8 300 9 9 479 290
487 292 3 1 71 -38 150 -85z m1172 -61 l248 -147 0 -298 0 -297 -147 -87 c-82
-48 -193 -113 -247 -146 -55 -32 -106 -56 -114 -53 -7 3 -121 69 -252 146
l-238 142 2 296 1 296 245 147 c135 81 247 148 249 148 3 0 116 -66 253 -147z
m851 130 c18 -10 130 -76 250 -147 l217 -130 0 -297 0 -296 -182 -108 c-101
-59 -214 -126 -252 -148 -52 -31 -72 -38 -85 -30 -9 5 -121 72 -248 148 l-233
137 0 297 0 297 248 146 c136 81 248 147 250 147 1 1 17 -7 35 -16z m1114 -30
c111 -68 116 -71 138 -82 11 -5 78 -45 150 -88 l130 -79 0 -294 0 -295 -205
-122 c-113 -67 -223 -134 -245 -148 -21 -14 -44 -25 -50 -25 -5 1 -120 67
-255 148 l-244 147 -1 280 c0 154 1 287 3 297 2 9 96 70 210 138 114 67 223
133 242 145 19 13 38 24 42 24 4 1 42 -20 85 -46z"/>
<path d="M2050 4086 l-195 -113 -3 -236 -2 -235 196 -117 c107 -64 202 -114
210 -111 21 8 357 207 374 222 13 11 16 49 15 243 0 126 -3 232 -5 234 -9 6
-389 227 -393 227 -1 0 -90 -51 -197 -114z"/>
<path d="M3155 4109 c-193 -115 -197 -117 -217 -125 -21 -8 -20 13 -20 -257
-1 -124 3 -222 9 -228 8 -8 269 -165 354 -213 l35 -20 197 118 197 117 -2 236
-3 237 -135 79 c-74 44 -155 91 -180 104 -25 14 -49 29 -54 34 -6 5 -15 9 -20
8 -6 0 -78 -41 -161 -90z"/>
<path d="M1519 3139 l-194 -118 -2 -235 -1 -236 89 -52 c49 -29 98 -57 109
-63 11 -5 20 -13 20 -17 0 -5 4 -8 10 -8 5 0 42 -20 82 -45 40 -25 76 -45 81
-45 5 0 96 52 203 116 l194 115 0 233 c0 175 -3 236 -12 243 -7 6 -97 60 -199
120 l-186 110 -194 -118z"/>
<path d="M2590 3144 c-96 -58 -182 -109 -190 -114 -13 -7 -15 -45 -15 -242 -1
-256 -6 -235 65 -275 19 -11 100 -59 179 -107 90 -55 150 -85 160 -81 9 3 100
56 204 117 l187 110 0 233 0 233 -27 18 c-16 10 -37 23 -48 29 -11 6 -86 50
-166 98 -81 48 -153 87 -160 87 -8 -1 -93 -48 -189 -106z"/>
<path d="M3648 3138 l-198 -119 0 -234 0 -233 196 -116 c115 -68 203 -115 212
-111 12 4 131 73 224 130 9 5 46 27 82 48 36 21 70 46 74 55 5 9 8 117 8 240
l-1 222 -155 93 c-85 51 -175 104 -200 118 l-45 26 -197 -119z"/>
<path d="M3225 2254 c-49 -30 -97 -59 -105 -64 -8 -5 -28 -17 -45 -26 -16 -10
-58 -35 -91 -56 l-62 -40 1 -233 0 -233 192 -116 c106 -64 196 -116 200 -116
4 0 94 52 201 116 l194 115 -2 236 -3 237 -42 25 c-24 14 -100 60 -170 102
-71 41 -139 83 -153 91 -24 16 -28 14 -115 -38z"/>
<path d="M2060 2194 c-102 -62 -189 -115 -195 -117 -6 -2 -10 -95 -10 -236 0
-196 2 -234 15 -245 21 -18 368 -226 377 -226 9 0 363 209 383 226 13 11 15
49 15 243 0 126 -3 232 -5 234 -9 7 -235 142 -245 146 -5 2 -21 11 -35 21 -14
9 -45 28 -70 42 l-45 25 -185 -113z"/>
</g>
</svg>
