<svg width="48" height="49" viewBox="0 0 48 49" fill="none" xmlns="http://www.w3.org/2000/svg">
<path d="M3.12177 48V29.5494L1 27.3762V13.0163L5.28598 10.3744M5.28598 10.3744V9.82514C5.28598 9.11264 5.0037 8.42915 4.50092 7.9243V7.9243C3.99815 7.41944 3.71587 6.73596 3.71587 6.02346V5.14593C3.71587 3.8978 4.27816 2.71609 5.24668 1.92881L5.29166 1.89224C6.00169 1.31507 6.88881 1 7.80383 1H7.97213C8.96576 1 9.91506 1.41133 10.5946 2.13629V2.13629C11.219 2.80245 11.5664 3.68126 11.5664 4.59429V6.06742C11.5664 6.75478 11.3091 7.41722 10.845 7.9243V7.9243C10.381 8.43137 10.1236 9.09382 10.1236 9.78117V10.3744M5.28598 10.3744V13.1442L7.8321 11.9084L10.1236 13.1442V10.3744M10.1236 10.3744L14.3247 13.0163L16.0646 30.5295L19.8838 26.0127L22.048 24.99V23.8395L20.4779 22.4334V20.5453C20.4779 18.7876 21.9028 17.3626 23.6605 17.3626V17.3626C25.4182 17.3626 26.8432 18.7875 26.8432 20.5452C26.8432 21.048 26.8432 21.6234 26.8432 22.4334L25.4428 23.8395V24.99L27.31 26.0127L30.0258 30.5295L33.5055 13.5277H35.3727M44.9207 30.5295L47 28.0154L44.1144 13.5277H40.9317L38.9373 17.7461L37.2399 13.5277H35.3727M44.9207 30.5295L45.6421 35.9411H43.0111L41.3137 48M44.9207 30.5295L43.6476 24.6918M36.8579 48L35.2454 35.9411H32.2749L34.4815 24.6918M12.2878 48V30.0607M20.2232 48L19.2897 37.3046V32.1913M26.4613 48L27.31 36.9637V32.1913M35.3727 13.5277V7.41934C35.3727 5.42724 36.9876 3.81233 38.9797 3.81233V3.81233C40.9718 3.81233 42.5867 5.42724 42.5867 7.41934V13.0163" stroke="#3E87F6" stroke-width="2" stroke-linecap="round" stroke-linejoin="round"/>
</svg>
