<svg width="60" height="51" viewBox="0 0 60 51" fill="none" xmlns="http://www.w3.org/2000/svg">
<circle cx="14.3756" cy="5.54259" r="4.54259" stroke="#3E87F6" stroke-width="2"/>
<path d="M10.083 26.6982V17.7013C10.083 15.3408 11.9966 13.4272 14.3571 13.4272V13.4272C16.7175 13.4272 18.6311 15.3408 18.6311 17.7013V26.6982" stroke="#3E87F6" stroke-width="2" stroke-linecap="round"/>
<circle cx="30.066" cy="5.54259" r="4.54259" stroke="#3E87F6" stroke-width="2"/>
<path d="M25.7734 26.6982V17.7013C25.7734 15.3408 27.687 13.4272 30.0475 13.4272V13.4272C32.408 13.4272 34.3215 15.3408 34.3215 17.7013V26.6982" stroke="#3E87F6" stroke-width="2" stroke-linecap="round"/>
<circle cx="45.7574" cy="5.54259" r="4.54259" stroke="#3E87F6" stroke-width="2"/>
<path d="M41.4648 26.6982V17.7013C41.4648 15.3408 43.3784 13.4272 45.7389 13.4272V13.4272C48.0994 13.4272 50.0129 15.3408 50.0129 17.7013V26.6982" stroke="#3E87F6" stroke-width="2" stroke-linecap="round"/>
<path d="M44.5 45.9533H49.7196C54.845 45.9533 59 41.7984 59 36.673V36.673C59 31.5475 54.845 27.3926 49.7196 27.3926H10.2804C5.15497 27.3926 1 31.5475 1 36.673V36.673C1 41.7984 5.15497 45.9533 10.2804 45.9533H15.5M19.9482 46.0281H40.6295M40.6295 46.0281L37.9336 43.0748M40.6295 46.0281L37.9336 49.3926" stroke="#3E87F6" stroke-width="2" stroke-linecap="round" stroke-linejoin="round"/>
</svg>
