<svg width="21" height="20" viewBox="0 0 21 20" fill="none" xmlns="http://www.w3.org/2000/svg">
<path fill-rule="evenodd" clip-rule="evenodd" d="M1.30762 0.80762C0.721836 1.39341 0.721836 2.34315 1.30762 2.92894L8.37869 10L1.30762 17.0711C0.721836 17.6569 0.721836 18.6066 1.30762 19.1924C1.89341 19.7782 2.84316 19.7782 3.42894 19.1924L10.5 12.1213L17.5711 19.1924C18.1569 19.7782 19.1066 19.7782 19.6924 19.1924C20.2782 18.6066 20.2782 17.6569 19.6924 17.0711L12.6213 10L19.6924 2.92894C20.2782 2.34315 20.2782 1.39341 19.6924 0.80762C19.1066 0.221833 18.1569 0.221832 17.5711 0.80762L10.5 7.87869L3.42894 0.80762C2.84316 0.221833 1.89341 0.221833 1.30762 0.80762Z" fill="#3E4B62"/>
</svg>
