<svg xmlns="http://www.w3.org/2000/svg" width="204" height="70" viewBox="0 0 204 70" fill="none">
  <path d="M23.8877 25.5075V19.1905L29.2474 16.0659L34.6071 19.1905V25.5075L29.2474 28.6999L23.8877 25.5075Z" fill="#50B25A"/>
  <path d="M16.7412 38.3452V32.0282L22.0348 28.8357L27.3945 32.0282V38.3452L22.0348 41.5376L16.7412 38.3452Z" fill="#F5C202"/>
  <path d="M45.5244 38.3452V32.0282L50.8841 28.8357L56.2438 32.0282V38.3452L50.8841 41.5376L45.5244 38.3452Z" fill="#F5C202"/>
  <path d="M31.0996 38.3452V32.0282L36.4593 28.8357L41.819 32.0282V38.3452L36.4593 41.5376L31.0996 38.3452Z" fill="#E44A35"/>
  <path d="M38.3125 25.5075V19.1905L43.6722 16.0659L49.0319 19.1905V25.5075L43.6722 28.6999L38.3125 25.5075Z" fill="#3E87F6"/>
  <path d="M23.9541 51.1829V44.8659L29.2476 41.6735L34.6074 44.8659V51.1829L29.2476 54.3753L23.9541 51.1829Z" fill="#3E87F6"/>
  <path d="M38.3789 51.1829V44.8659L43.6725 41.6735L49.0322 44.8659V51.1829L43.6725 54.3753L38.3789 51.1829Z" fill="#50B25A"/>
  <path d="M65.7723 52.0659V43.5075L58.5598 39.2282V30.6697L51.3474 26.3905V17.832L44.1349 13.5528V4.9943L36.4593 0.443359L28.8498 4.9943V13.5528L21.6374 17.832V26.3905L14.4249 30.6697V39.2282L7.21246 43.5075V52.0659L0 56.2772V65.3112L7.67564 69.8621L14.8881 65.5829L22.1006 69.8621L29.313 65.5829L36.5255 69.8621L43.7379 65.5829L50.9504 69.8621L58.1628 65.5829L65.3753 69.8621L73.0509 65.3112V56.2772L65.7723 52.0659ZM43.2747 39.2282L36.5255 43.2357L29.7762 39.2282V31.2131L36.5255 27.2056L43.2747 31.2131V39.2282ZM29.2468 56.0735L22.4976 52.0659V44.0508L29.2468 40.0433L35.9961 44.0508V52.0659L29.2468 56.0735ZM36.9225 51.998V43.9829L43.6718 39.9754L50.421 43.9829V51.998L43.6718 56.0735L36.9225 51.998ZM64.9121 51.998L58.0967 56.0055L51.3474 51.998V43.9829L58.0967 39.9754L64.8459 43.9829V51.998H64.9121ZM57.6335 39.2282L50.8842 43.2357L44.1349 39.2282V31.2131L50.8842 27.2056L57.6335 31.2131V39.2282ZM50.421 26.3905L43.6718 30.3981L36.9225 26.3905V18.3754L43.6718 14.3679L50.421 18.3754V26.3905ZM29.71 5.53769L36.4593 1.53017L43.2086 5.53769V13.5528L36.4593 17.5603L29.71 13.5528V5.53769ZM22.4976 18.3754L29.2468 14.3679L35.9961 18.3754V26.3905L29.2468 30.3981L22.4976 26.3905V18.3754ZM22.0344 27.1376L28.7837 31.1452V39.1603L22.0344 43.1678L15.2851 39.1603V31.1452L22.0344 27.1376ZM8.07266 43.9829L14.8219 39.9754L21.5712 43.9829V51.998L14.8219 56.0055L8.07266 51.998V43.9829ZM0.860201 64.8357V56.8206L7.60947 52.8131L14.3587 56.8206V64.8357L7.67564 68.8433L0.860201 64.8357ZM15.2851 64.8357V56.8206L22.0344 52.8131L28.7837 56.8206V64.8357L22.0344 68.8433L15.2851 64.8357ZM43.2747 64.8357L36.4593 68.8433L29.71 64.8357V56.8206L36.4593 52.8131L43.2086 56.8206V64.8357H43.2747ZM44.1349 64.8357V56.8206L50.9504 52.8131L57.6996 56.8206V64.8357L50.8842 68.8433L44.1349 64.8357ZM72.0584 64.8357L65.3091 68.8433L58.5598 64.8357V56.8206L65.3091 52.8131L72.0584 56.8206V64.8357Z" fill="#F4F2F1"/>
  <path d="M163.769 33.3188L157.615 30.1942C156.358 29.515 154.77 29.515 153.513 30.1942L147.359 33.3188C146.102 33.998 145.308 35.1528 145.308 36.5113V42.8282C145.308 44.1188 146.102 45.3414 147.359 46.0207L153.513 49.1452C154.77 49.8244 156.358 49.8244 157.615 49.1452L163.769 46.0207C165.026 45.3414 165.82 44.1867 165.82 42.8282V36.5113C165.82 35.1528 165.026 33.9301 163.769 33.3188ZM159.468 40.7905C159.468 41.266 159.203 41.7414 158.674 42.0131L156.358 43.1678C155.895 43.4395 155.299 43.4395 154.836 43.1678L152.52 42.0131C152.057 41.7414 151.726 41.3339 151.726 40.7905V38.4131C151.726 37.9377 151.991 37.4622 152.52 37.1905L154.836 36.0358C155.299 35.7641 155.895 35.7641 156.358 36.0358L158.674 37.1905C159.137 37.4622 159.468 37.8697 159.468 38.4131V40.7905Z" fill="#3E87F6"/>
  <path d="M115.333 22.6547L112.951 21.4999C112.488 21.2282 111.892 21.2282 111.363 21.4999L108.981 22.6547C108.517 22.9264 108.187 23.3339 108.187 23.8094V26.1188C108.187 26.5942 108.517 27.0697 108.981 27.2735L111.363 28.4282C111.826 28.6999 112.421 28.6999 112.951 28.4282L115.333 27.2735C115.796 27.0018 116.127 26.5942 116.127 26.1188V23.8094C116.061 23.3339 115.796 22.9264 115.333 22.6547Z" fill="#E44A35"/>
  <path d="M115.333 32.3678L112.951 31.2131C112.421 30.9414 111.892 30.9414 111.363 31.2131L108.981 32.3678C108.517 32.6395 108.187 33.0471 108.187 33.5226V48.6697C108.187 49.1452 108.517 49.4848 108.981 49.4848H115.267C115.73 49.4848 116.061 49.1452 116.061 48.6697V33.5226C116.061 33.0471 115.796 32.6395 115.333 32.3678Z" fill="#E44A35"/>
  <path d="M202.61 33.5905L198.508 31.5528C197.648 31.1452 196.655 31.1452 195.729 31.5528L191.626 33.5905C191.295 33.7943 190.634 34.2018 190.369 34.5414C190.104 34.1339 189.773 33.8622 189.31 33.5905L185.208 31.5528C184.347 31.1452 183.355 31.1452 182.429 31.5528L178.326 33.5905C177.929 33.7943 177.664 33.9981 177.466 34.3377L177.4 33.8622V32.8433C177.4 32.4358 177.135 32.0283 176.672 31.7566L174.488 30.6698C174.025 30.466 173.496 30.466 173.033 30.6698L170.849 31.7566C170.386 31.9603 170.121 32.3679 170.121 32.8433V33.4547V48.7376C170.121 49.2131 170.518 49.6207 170.981 49.6207H176.54C177.003 49.6207 177.4 49.2131 177.4 48.7376V40.315C177.4 39.9754 177.598 39.6358 177.995 39.432L179.782 38.549C180.179 38.3452 180.642 38.3452 180.973 38.549L182.759 39.432C183.156 39.6358 183.355 39.9754 183.355 40.315L183.421 48.8056C183.421 49.281 183.818 49.6207 184.281 49.6207H189.84C190.303 49.6207 190.7 49.2131 190.7 48.7376V40.315C190.7 39.9754 190.898 39.6358 191.295 39.432L193.082 38.549C193.479 38.3452 193.942 38.3452 194.273 38.549L196.059 39.432C196.456 39.6358 196.655 39.9754 196.655 40.315L196.721 48.8056C196.721 49.281 197.118 49.6207 197.581 49.6207H203.14C203.603 49.6207 204 49.2131 204 48.7376V35.6282C204 34.7452 203.47 33.998 202.61 33.5905Z" fill="#50B25A"/>
  <path d="M139.55 33.5905L135.448 31.5528C134.588 31.1452 133.529 31.1452 132.669 31.5528L128.566 33.5905C128.169 33.7943 127.905 33.9981 127.706 34.3377L127.64 33.8622V32.8433C127.64 32.4358 127.375 32.0283 126.912 31.7566L124.729 30.6698C124.265 30.466 123.736 30.466 123.273 30.6698L121.089 31.7566C120.626 31.9603 120.361 32.3679 120.361 32.8433V33.4547C120.361 33.4547 120.361 33.6584 120.361 33.9301V35.0169C120.361 35.0169 120.361 35.0169 120.361 35.0848C120.427 38.2773 120.494 45.5452 120.361 48.8055C120.361 49.281 120.692 49.6886 121.222 49.6886H126.78C127.243 49.6886 127.64 49.281 127.64 48.8055V40.3829C127.64 40.0433 127.838 39.7037 128.235 39.4999L130.022 38.6169C130.419 38.4131 130.882 38.4131 131.213 38.6169L133 39.4999C133.397 39.7037 133.595 40.0433 133.595 40.3829L133.661 48.8735C133.661 49.3489 134.058 49.6886 134.522 49.6886H140.08C140.543 49.6886 140.94 49.281 140.94 48.8055V39.6358V37.1905V35.5603C140.94 34.7452 140.411 33.998 139.55 33.5905Z" fill="#F3BF00"/>
  <path d="M102.099 33.3867L96.8052 30.2622C95.6804 29.583 94.357 29.583 93.2321 30.2622L90.9823 31.6207V22.7226C90.9823 22.2471 90.6515 21.7716 90.1883 21.4999L87.7401 20.2773C87.2107 20.0056 86.6152 20.0056 86.0858 20.2773L83.6375 21.4999C83.1082 21.7716 82.8435 22.1792 82.8435 22.6547V24.8962V32.9792V40.1792C82.8435 43.7792 82.8435 46.8358 82.7773 48.3301C82.7773 48.8056 83.1744 49.1452 83.6375 49.1452H90.1221C90.5853 49.1452 90.9823 48.7377 90.9823 48.2622V47.6508L93.2321 49.0093C94.357 49.6886 95.6804 49.6886 96.8052 49.0093L102.099 45.8848C103.224 45.2056 103.885 44.0508 103.885 42.7603V36.5113C103.885 35.2207 103.158 33.998 102.099 33.3867ZM97.5993 40.3829C97.5993 41.4018 97.0699 42.2848 96.2759 42.7603L95.0848 43.4395C94.2246 43.915 93.2321 43.915 92.3719 43.4395L91.1809 42.7603C90.3207 42.2848 89.8575 41.3339 89.8575 40.3829V38.9565C89.8575 37.9377 90.3868 37.0546 91.1809 36.5792L92.3719 35.8999C93.2321 35.4245 94.2246 35.4245 95.0848 35.8999L96.2759 36.5792C97.1361 37.0546 97.5993 38.0056 97.5993 38.9565V40.3829Z" fill="#3E87F6"/>
</svg>