<svg width="31" height="30" viewBox="0 0 31 30" fill="none" xmlns="http://www.w3.org/2000/svg">
<path d="M27.9904 7.78867L15.5 0.57735L3.00962 7.78867V22.2113L15.5 29.4227L27.9904 22.2113V7.78867Z" stroke="white"/>
<path d="M25 14.5C25.2761 14.5 25.5 14.7239 25.5 15C25.5 15.2761 25.2761 15.5 25 15.5V14.5ZM6.14645 15.3536C5.95119 15.1583 5.95119 14.8417 6.14645 14.6464L9.32843 11.4645C9.52369 11.2692 9.84027 11.2692 10.0355 11.4645C10.2308 11.6597 10.2308 11.9763 10.0355 12.1716L7.20711 15L10.0355 17.8284C10.2308 18.0237 10.2308 18.3403 10.0355 18.5355C9.84027 18.7308 9.52369 18.7308 9.32843 18.5355L6.14645 15.3536ZM25 15.5H6.5V14.5H25V15.5Z" fill="white"/>
</svg>
